<svg width="320" height="93" viewBox="0 0 320 93" fill="none" xmlns="http://www.w3.org/2000/svg">
<path d="M104.611 48.1057V28.8821H96.5741V50.1269C96.5741 51.8902 96.4465 54.1696 94.1501 54.1696C92.1089 54.1696 91.8113 52.0622 91.7262 50.471H83.1787C83.1787 55.1157 85.0498 58.9002 89.5149 60.5344C90.8332 61.0505 92.3216 61.3085 93.7674 61.3085C97.1269 61.3085 100.529 59.8033 102.655 57.137C104.611 54.6427 104.611 51.1591 104.611 48.1057ZM134.022 60.7065V36.8382H126.962V39.3755H126.877C125.474 37.0102 122.582 36.021 119.988 36.021C112.887 36.021 108.124 41.7838 108.124 48.7508C108.124 55.8468 112.717 61.5236 119.988 61.5236C122.54 61.5236 125.602 60.5774 126.877 58.1261H126.962V60.7065H134.022ZM126.962 48.7508C126.962 52.1912 124.496 54.8577 121.051 54.8577C117.734 54.8577 115.183 52.1482 115.183 48.8368C115.183 45.4393 117.564 42.6869 121.009 42.6869C124.453 42.6869 126.962 45.2673 126.962 48.7508ZM175.403 60.7065V47.6756C175.403 44.0201 175.53 41.1817 172.851 38.4294C171.193 36.7091 168.981 36.021 166.642 36.021C163.453 36.021 160.859 37.5693 159.158 40.2786C157.712 37.5693 155.416 36.021 152.354 36.021C149.675 36.021 147.208 36.9242 145.848 39.3755H145.763V36.8382H139.171V60.7065H146.23V48.0197C146.23 45.2243 146.953 42.7299 150.228 42.7299C153.205 42.7299 153.757 45.2673 153.757 47.7186V60.7065H160.816V47.6756C160.816 44.9662 161.582 42.7299 164.729 42.7299C168.003 42.7299 168.343 45.3963 168.343 48.0197V60.7065H175.403ZM198.058 53.3954C198.058 44.9662 186.193 47.0735 186.193 43.332C186.193 42.2569 187.256 41.7408 188.192 41.7408C189.425 41.7408 190.361 42.2139 190.403 43.5471H197.335C196.867 38.4724 192.997 36.021 188.277 36.021C183.727 36.021 179.134 38.9024 179.134 43.8911C179.134 47.2455 181.941 49.0948 184.747 50.1269C185.768 50.514 186.789 50.858 187.809 51.2021C189.085 51.7182 190.999 52.2342 190.999 53.9546C190.999 55.2017 189.595 55.8038 188.532 55.8038C187.129 55.8038 186.066 55.0727 185.853 53.6104H178.836C179.389 58.8572 183.514 61.5236 188.447 61.5236C193.252 61.5236 198.058 58.7712 198.058 53.3954ZM213.453 42.2569V36.8382H210.051V28.8821H202.992V36.8382H199.505V42.2569H202.992V60.7065H210.051V42.2569H213.453ZM240.666 60.7065V36.8382H233.607V39.3755H233.522C232.119 37.0102 229.227 36.021 226.633 36.021C219.531 36.021 214.768 41.7838 214.768 48.7508C214.768 55.8468 219.361 61.5236 226.633 61.5236C229.184 61.5236 232.246 60.5774 233.522 58.1261H233.607V60.7065H240.666ZM233.607 48.7508C233.607 52.1912 231.14 54.8577 227.696 54.8577C224.379 54.8577 221.828 52.1482 221.828 48.8368C221.828 45.4393 224.209 42.6869 227.653 42.6869C231.098 42.6869 233.607 45.2673 233.607 48.7508ZM269.672 51.6321H262.486C261.422 53.6964 259.721 54.8147 257.383 54.8147C253.938 54.8147 251.769 52.1052 251.769 48.7508C251.769 45.5253 253.811 42.6869 257.212 42.6869C259.636 42.6869 261.465 43.8051 262.486 46.0414H269.63C268.397 39.9776 263.166 36.021 257.127 36.021C250.111 36.021 244.668 41.6548 244.668 48.7077C244.668 55.8468 250.238 61.4806 257.298 61.4806C263.251 61.4806 268.312 57.481 269.672 51.6321ZM295.259 36.8382H286.882L280.333 45.4823H280.248V28.8821H273.189V60.7065H280.248V49.2238H280.333L287.009 60.7065H295.004L286.371 47.3316L295.259 36.8382Z" fill="white"/>
<path fill-rule="evenodd" clip-rule="evenodd" d="M43.4285 20.5514C29.1817 20.5514 17.6637 32.1996 17.6637 46.6076C17.6637 61.0155 29.1817 72.6636 43.4285 72.6636C57.6754 72.6636 69.1933 61.0155 69.1933 46.6076V20.5514H43.4285ZM42.33 65.4005C32.9112 64.8565 25.3482 57.2079 24.8101 47.6828H42.33V65.4005ZM44.4917 47.7185H62.0114C61.4734 57.2439 53.9104 64.8925 44.4917 65.4365V47.7185ZM44.4917 27.7553H62.0348V45.4965H44.4917V27.7553Z" fill="white"/>
<path d="M134.914 75.3633H136.719V82.4473H140.996V84H134.914V75.3633ZM153.39 82.7109C154.105 82.7109 154.672 82.4473 155.09 81.9199C155.511 81.3926 155.722 80.6426 155.722 79.6699C155.722 78.7012 155.511 77.9531 155.09 77.4258C154.672 76.8945 154.105 76.6289 153.39 76.6289C152.675 76.6289 152.105 76.8926 151.679 77.4199C151.254 77.9473 151.041 78.6973 151.041 79.6699C151.041 80.6426 151.254 81.3926 151.679 81.9199C152.105 82.4473 152.675 82.7109 153.39 82.7109ZM157.527 79.6699C157.527 81.2207 157.091 82.4082 156.22 83.2324C155.568 83.9043 154.625 84.2402 153.39 84.2402C152.156 84.2402 151.213 83.9043 150.56 83.2324C149.685 82.4082 149.248 81.2207 149.248 79.6699C149.248 78.0879 149.685 76.9004 150.56 76.1074C151.213 75.4355 152.156 75.0996 153.39 75.0996C154.625 75.0996 155.568 75.4355 156.22 76.1074C157.091 76.9004 157.527 78.0879 157.527 79.6699ZM166.201 75.3633H168.093L171.533 81.3926V75.3633H173.214V84H171.41L167.882 77.8652V84H166.201V75.3633ZM183.974 76.8633V82.5H185.638C186.489 82.5 187.083 82.0801 187.419 81.2402C187.603 80.7793 187.694 80.2305 187.694 79.5938C187.694 78.7148 187.556 78.041 187.278 77.5723C187.005 77.0996 186.458 76.8633 185.638 76.8633H183.974ZM185.942 75.3633C186.478 75.3711 186.923 75.4336 187.278 75.5508C187.884 75.75 188.374 76.1152 188.749 76.6465C189.05 77.0762 189.255 77.541 189.364 78.041C189.474 78.541 189.528 79.0176 189.528 79.4707C189.528 80.6191 189.298 81.5918 188.837 82.3887C188.212 83.4629 187.247 84 185.942 84H182.222V75.3633H185.942ZM202.034 82.7109C202.749 82.7109 203.315 82.4473 203.733 81.9199C204.155 81.3926 204.366 80.6426 204.366 79.6699C204.366 78.7012 204.155 77.9531 203.733 77.4258C203.315 76.8945 202.749 76.6289 202.034 76.6289C201.319 76.6289 200.749 76.8926 200.323 77.4199C199.897 77.9473 199.684 78.6973 199.684 79.6699C199.684 80.6426 199.897 81.3926 200.323 81.9199C200.749 82.4473 201.319 82.7109 202.034 82.7109ZM206.171 79.6699C206.171 81.2207 205.735 82.4082 204.864 83.2324C204.212 83.9043 203.268 84.2402 202.034 84.2402C200.8 84.2402 199.856 83.9043 199.204 83.2324C198.329 82.4082 197.891 81.2207 197.891 79.6699C197.891 78.0879 198.329 76.9004 199.204 76.1074C199.856 75.4355 200.8 75.0996 202.034 75.0996C203.268 75.0996 204.212 75.4355 204.864 76.1074C205.735 76.9004 206.171 78.0879 206.171 79.6699ZM214.844 75.3633H216.737L220.176 81.3926V75.3633H221.858V84H220.053L216.526 77.8652V84H214.844V75.3633Z" fill="white"/>
</svg>
